# File created by Blade
# Date/Time:  Wed Jan 21 19:19:27 2015
#---------------------------------------------------------
:version 1.10
:name HOM
:units
  mass 1.0
  length 1.000000
  angle deg
:documentation
     Acclaim Skeleton File
:root
   axis xyz
   order TX TY TZ RX RY RZ
   position 0.000000 0.000000 0.000000
   orientation 0 0 0
:bonedata
   begin
      id 1
      name RightUpLeg_dum
      direction -1.000000 0.000000 0.000000
      length 3.693983
      axis 0.0 0.0 0.0 xyz
   end
   begin
      id 2
      name LeftUpLeg_dum
      direction 1.000000 0.000000 0.000000
      length 3.693983
      axis 0.0 0.0 0.0 xyz
   end
   begin
      id 3
      name Spine_dum
      direction 0.000000 1.000000 0.000000
      length 2.392956
      axis 0.0 0.0 0.0 xyz
   end
   begin
      id 4
      name RightUpLeg
      direction 0.000000 -1.000000 0.000000
      length 15.795667
      axis 0.0 0.0 0.0 xyz
      dof rx ry rz
   end
   begin
      id 5
      name RightLeg
      direction 0.000000 -1.000000 0.000000
      length 14.766989
      axis 0.0 0.0 0.0 xyz
      dof rx ry rz
   end
   begin
      id 6
      name RightFoot
      direction 0.000000 -0.258819 0.965926
      length 4.962790
      axis 15.0 0.0 0.0 xyz
      dof rx ry rz
   end
   begin
      id 7
      name RightToeBase
      direction 0.000000 0.000000 1.000000
      length 2.952750
      axis 0.0 0.0 0.0 xyz
      dof rx ry rz
   end
   begin
      id 8
      name LeftUpLeg
      direction 0.000000 -1.000000 0.000000
      length 15.795667
      axis 0.0 0.0 0.0 xyz
      dof rx ry rz
   end
   begin
      id 9
      name LeftLeg
      direction 0.000000 -1.000000 0.000000
      length 14.766989
      axis 0.0 0.0 0.0 xyz
      dof rx ry rz
   end
   begin
      id 10
      name LeftFoot
      direction 0.000000 -0.258819 0.965926
      length 4.962790
      axis 15.0 0.0 0.0 xyz
      dof rx ry rz
   end
   begin
      id 11
      name LeftToeBase
      direction 0.000000 0.000000 1.000000
      length 2.952750
      axis 0.0 0.0 0.0 xyz
      dof rx ry rz
   end
   begin
      id 12
      name Spine
      direction 0.000000 1.000000 0.000000
      length 0.000000
      axis 0.0 0.0 0.0 xyz
      dof rx ry rz
   end
   begin
      id 13
      name Spine_dum1
      direction 0.000000 1.000000 0.000000
      length 13.207411
      axis 0.0 0.0 0.0 xyz
   end
   begin
      id 14
      name Spine_dum2
      direction 0.000000 1.000000 0.000000
      length 13.207411
      axis 0.0 0.0 0.0 xyz
   end
   begin
      id 15
      name Spine_dum3
      direction 0.000000 1.000000 0.000000
      length 19.250100
      axis 0.0 0.0 0.0 xyz
   end
   begin
      id 16
      name RightShoulder
      direction -1.000000 0.000000 0.000000
      length 8.140465
      axis 0.0 0.0 90.0 xyz
      dof rx ry rz
   end
   begin
      id 17
      name RightArm
      direction -1.000000 0.000000 0.000000
      length 10.649840
      axis 0.0 0.0 90.0 xyz
      dof rx ry rz
   end
   begin
      id 18
      name RightForeArm
      direction -1.000000 0.000000 0.000000
      length 8.304624
      axis 0.0 0.0 90.0 xyz
      dof ry rz rx
   end
   begin
      id 19
      name RightHand
      direction -1.000000 0.000000 0.000000
      length 0.000000
      axis 0.0 0.0 90.0 xyz
      dof rx ry rz
   end
   begin
      id 20
      name RightHand_dum1
      direction -1.000000 0.000000 0.000000
      length 3.937000
      axis 0.0 0.0 90.0 xyz
   end
   begin
      id 21
      name RightHand_dum2
      direction 0.000000 0.000000 0.000000
      length 0.000000
      axis 0.0 0.0 90.0 xyz
   end
   begin
      id 22
      name RightHandThumb1
      direction 0.000000 0.000000 1.000000
      length 3.937000
      axis 0.0 0.0 90.0 xyz
      dof rx rz ry
   end
   begin
      id 23
      name LeftShoulder
      direction 1.000000 0.000000 0.000000
      length 8.140465
      axis 0.0 0.0 -90.0 xyz
      dof rx ry rz
   end
   begin
      id 24
      name LeftArm
      direction 1.000000 0.000000 0.000000
      length 10.649840
      axis 0.0 0.0 -90.0 xyz
      dof rx ry rz
   end
   begin
      id 25
      name LeftForeArm
      direction 1.000000 0.000000 0.000000
      length 8.304624
      axis 0.0 0.0 -90.0 xyz
      dof ry rz rx
   end
   begin
      id 26
      name LeftHand
      direction 1.000000 0.000000 0.000000
      length 0.000000
      axis 0.0 0.0 -90.0 xyz
      dof rx ry rz
   end
   begin
      id 27
      name LeftHand_dum1
      direction 1.000000 0.000000 0.000000
      length 3.937000
      axis 0.0 0.0 -90.0 xyz
   end
   begin
      id 28
      name LeftHand_dum2
      direction 0.000000 0.000000 0.000000
      length 0.000000
      axis 0.0 0.0 -90.0 xyz
   end
   begin
      id 29
      name LeftHandThumb1
      direction 0.000000 0.000000 1.000000
      length 3.937000
      axis 0.0 0.0 -90.0 xyz
      dof rx rz ry
   end
   begin
      id 30
      name Head
      direction 0.000000 1.000000 0.000000
      length 4.527550
      axis 0.0 0.0 0.0 xyz
      dof rx ry rz
   end
:hierarchy
   begin
      root RightUpLeg_dum LeftUpLeg_dum Spine_dum
      RightUpLeg_dum RightUpLeg
      LeftUpLeg_dum LeftUpLeg
      Spine_dum Spine
      RightUpLeg RightLeg
      RightLeg RightFoot
      RightFoot RightToeBase
      LeftUpLeg LeftLeg
      LeftLeg LeftFoot
      LeftFoot LeftToeBase
      Spine Spine_dum1 Spine_dum2 Spine_dum3
      Spine_dum1 RightShoulder
      Spine_dum2 LeftShoulder
      Spine_dum3 Head
      RightShoulder RightArm
      RightArm RightForeArm
      RightForeArm RightHand
      RightHand RightHand_dum1 RightHand_dum2
      RightHand_dum2 RightHandThumb1
      LeftShoulder LeftArm
      LeftArm LeftForeArm
      LeftForeArm LeftHand
      LeftHand LeftHand_dum1 LeftHand_dum2
      LeftHand_dum2 LeftHandThumb1
   end

# File created by Blade
# Date/Time:  Wed Jan 21 19:19:18 2015
# Frame Rate: 120.000 fps
#------------------------------------------------------
:FULLY-SPECIFIED
:DEGREES
163
root -4.232945 26.462542 -4.651639 63.608958 -24.993896 10.865432
RightUpLeg -124.612540 -29.870204 19.290212
RightLeg 58.985501 -0.000000 -0.000000
RightFoot -10.307248 16.647523 28.209821
RightToeBase 19.092086 -0.000000 -0.000000
LeftUpLeg -59.792671 29.067026 -0.151563
LeftLeg 9.115445 -0.000000 -0.000000
LeftFoot -4.570510 -1.566835 -28.008819
LeftToeBase -0.433718 -0.000000 0.000000
Spine -34.416478 11.832763 6.239816
RightShoulder -8.721982 20.440282 -27.325820
RightArm 5.606857 -18.116645 74.511999
RightForeArm 14.542628 -0.000000 4.822786
RightHand 15.984983 -0.000000 -11.207088
RightHandThumb1 -24.326973 -0.000000 -32.862282
LeftShoulder -9.951955 6.994194 32.961783
LeftArm 15.282581 -0.322682 -75.110103
LeftForeArm 7.946467 -0.000000 8.396975
LeftHand -20.720461 -0.000000 7.661447
LeftHandThumb1 -26.253704 0.000000 33.147579
Head 1.124623 7.132671 0.707249
164
root -4.153309 26.380031 -4.666439 63.562884 -25.136545 10.879332
RightUpLeg -124.926931 -29.961787 19.197145
RightLeg 59.278343 -0.000000 -0.000000
RightFoot -10.412892 16.935986 28.398960
RightToeBase 18.957659 -0.000000 -0.000000
LeftUpLeg -59.616255 29.190404 0.034772
LeftLeg 9.205470 -0.000000 -0.000000
LeftFoot -4.865330 -1.726451 -28.140175
LeftToeBase -0.393265 -0.000000 0.000000
Spine -34.307587 11.874168 6.348907
RightShoulder -8.653165 20.524458 -27.297390
RightArm 5.652599 -18.136689 74.361957
RightForeArm 14.611220 0.000000 4.669744
RightHand 15.898205 -0.000000 -11.004375
RightHandThumb1 -24.326973 -0.000000 -32.862282
LeftShoulder -9.921084 6.913925 33.013301
LeftArm 15.517577 -0.737816 -74.813602
LeftForeArm 8.122150 -0.000000 8.780277
LeftHand -20.614923 -0.000000 7.601658
LeftHandThumb1 -26.253704 0.000000 33.147579
Head 1.149951 7.212329 0.556300
165
root -4.075912 26.294803 -4.677309 63.517251 -25.264917 10.935654
RightUpLeg -125.310488 -30.080363 19.145469
RightLeg 59.616988 -0.000000 -0.000000
RightFoot -10.541176 17.151097 28.275850
RightToeBase 18.737607 -0.000000 -0.000000
LeftUpLeg -59.424813 29.270512 0.235255
LeftLeg 9.263536 -0.000000 -0.000000
LeftFoot -5.149782 -1.943454 -28.241280
LeftToeBase -0.343666 -0.000000 0.000000
Spine -34.243276 11.864190 6.453304
RightShoulder -8.583157 20.571820 -27.264860
RightArm 5.770506 -18.090491 74.194359
RightForeArm 14.532746 -0.000000 4.467185
RightHand 15.754506 -0.000000 -10.550118
RightHandThumb1 -24.326973 -0.000000 -32.862282
LeftShoulder -9.880297 6.917197 33.082548
LeftArm 15.775527 -1.229496 -74.571726
LeftForeArm 8.703318 -0.000000 9.194556
LeftHand -20.674591 -0.000000 7.920449
LeftHandThumb1 -26.253704 0.000000 33.147579
Head 1.188038 7.294753 0.421871
166
root -3.998374 26.207682 -4.687409 63.472029 -25.417115 11.002004
RightUpLeg -125.710865 -30.186487 19.067021
RightLeg 59.961331 -0.000000 -0.000000
RightFoot -10.576405 17.283346 28.192501
RightToeBase 18.510590 -0.000000 -0.000000
LeftUpLeg -59.208511 29.361877 0.425814
LeftLeg 9.278229 -0.000000 -0.000000
LeftFoot -5.349849 -2.354692 -28.351945
LeftToeBase -0.592447 -0.000000 0.000000
Spine -34.193474 11.877021 6.504402
RightShoulder -8.519078 20.490058 -27.211208
RightArm 6.048363 -18.173897 73.962684
RightForeArm 14.729670 -0.000000 4.130311
RightHand 15.792223 -0.000000 -10.277821
RightHandThumb1 -24.326973 -0.000000 -32.862282
LeftShoulder -9.831626 6.793992 33.210940
LeftArm 15.926394 -1.717739 -74.344649
LeftForeArm 9.104194 -0.000000 9.624331
LeftHand -20.749070 0.000000 8.073915
LeftHandThumb1 -26.253704 0.000000 33.147579
Head 1.216373 7.345446 0.317953
167
root -3.922162 26.117644 -4.695851 63.397934 -25.583067 11.119162
RightUpLeg -126.148313 -30.323922 18.964216
RightLeg 60.335128 -0.000000 -0.000000
RightFoot -10.545938 17.379355 28.072560
RightToeBase 18.389496 -0.000000 -0.000000
LeftUpLeg -58.981969 29.438345 0.554832
LeftLeg 9.255750 -0.000000 -0.000000
LeftFoot -5.550351 -2.763818 -28.436096
LeftToeBase -0.778753 -0.000000 0.000000
Spine -34.162688 11.858763 6.518635
RightShoulder -8.408829 20.579093 -27.186392
RightArm 6.093490 -18.246501 73.782050
RightForeArm 14.787748 -0.000000 3.816212
RightHand 15.529981 0.000000 -9.714229
RightHandThumb1 -24.326973 -0.000000 -32.862282
LeftShoulder -9.791741 6.714295 33.333763
LeftArm 16.155016 -2.120018 -74.089946
LeftForeArm 9.460066 -0.000000 9.991944
LeftHand -20.953246 0.000000 8.399990
LeftHandThumb1 -26.253704 0.000000 33.147579
Head 1.266309 7.414349 0.254720
168
root -3.848481 26.023868 -4.699463 63.332538 -25.727842 11.254542
RightUpLeg -126.665972 -30.468809 18.980771
RightLeg 60.720660 -0.000000 -0.000000
RightFoot -10.454995 17.494712 27.816546
RightToeBase 18.042335 -0.000000 -0.000000
LeftUpLeg -58.763811 29.514207 0.646846
LeftLeg 9.206508 -0.000000 -0.000000
LeftFoot -5.706275 -3.109579 -28.643732
LeftToeBase -0.927833 -0.000000 0.000000
Spine -34.164950 11.870682 6.514152
RightShoulder -8.364942 20.669327 -27.212621
RightArm 6.122612 -18.328573 73.634589
RightForeArm 14.960625 -0.000000 3.475051
RightHand 15.467922 -0.000000 -9.396584
RightHandThumb1 -24.326973 -0.000000 -32.862282
LeftShoulder -9.723335 6.602324 33.422155
LeftArm 16.369764 -2.450724 -73.741446
LeftForeArm 9.966540 0.000000 10.295528
LeftHand -20.920445 -0.000000 8.612089
LeftHandThumb1 -26.253704 0.000000 33.147579
Head 1.282693 7.438475 0.164657
169
root -3.782938 25.927921 -4.701860 63.246706 -25.837413 11.298803
RightUpLeg -127.027300 -30.558240 18.924672
RightLeg 61.099188 -0.000000 -0.000000
RightFoot -10.446763 17.457703 27.413009
RightToeBase 17.907442 -0.000000 -0.000000
LeftUpLeg -58.515005 29.704319 0.785252
LeftLeg 9.178551 -0.000000 -0.000000
LeftFoot -5.854232 -3.296335 -28.698664
LeftToeBase -0.968616 -0.000000 0.000000
Spine -34.116920 11.891791 6.614855
RightShoulder -8.235987 20.772847 -27.188519
RightArm 6.173802 -18.503847 73.452929
RightForeArm 15.364636 -0.000000 3.041244
RightHand 15.519788 0.000000 -9.016562
RightHandThumb1 -24.326973 -0.000000 -32.862282
LeftShoulder -9.665368 6.552103 33.484179
LeftArm 16.615811 -2.747672 -73.369078
LeftForeArm 10.364886 -0.000000 10.530789
LeftHand -20.982552 -0.000000 9.169702
LeftHandThumb1 -26.253704 0.000000 33.147579
Head 1.342149 7.496819 0.067904
